PathFileType	4	(X/Y/Z)	C:/Users/beibeiliu/ov580/test_trc/User3\out9_training_dense_right.trc
DataRate	CameraRate	NumFrames	NumMarkers	Units	OrigDataRate	OrigDataStartFrame	OrigNumFrames
120	120	12	19	mm	120	63	500
Frame#	Time	ThumbCMC			ThumbMCP			ThumbIP			ThumbTip			IndexMCP			IndexPIP			IndexTip			MiddleMCP			MiddlePIP			MiddleTip			RingMCP			RingPIP			RingTip			PinkyMCP			PinkyPIP			PinkyTip			BackHand1			BackHand2			BackHand3	
		X0	Y0	Z0	X1	Y1	Z1	X2	Y2	Z2	X3	Y3	Z3	X4	Y4	Z4	X5	Y5	Z5	X6	Y6	Z6	X7	Y7	Z7	X8	Y8	Z8	X9	Y9	Z9	X10	Y10	Z10	X11	Y11	Z11	X12	Y12	Z12	X13	Y13	Z13	X14	Y14	Z14	X15	Y15	Z15	X16	Y16	Z16	X17	Y17	Z17	X18	Y18	Z18	
62	0.516667	111.641	58.5379	87.0394	94.1808	42.2437	62.1109	88.9843	27.5677	31.7467	93.9598	13.1274	15.4148	132.826	70.3272	16.2747	128.241	66.513	-9.09006	120.824	64.6021	-36.001	147.875	60.8149	3.90394	136.423	57.098	-18.2971	127.513	46.2247	-49.2381	155.885	33.4179	16.6886	134.575	11.2533	3.64765	117.817	-12.5867	21.1564	168.489	19.1477	27.6572	145.669	1.22667	23.48	129.279	-3.76253	48.4412	174.212	56.3981	67.03	179.371	54.5803	98.4054	147.868	74.0896	79.8436	
63	0.525	109.29	60.7425	87.2331	94.963	48.3877	59.431	90.2206	38.4493	30.1622	99.4908	25.5163	7.6693	132.888	85.127	20.6622	124.88	90.2937	-7.0472	126.83	86.5352	-32.3374	148.748	77.4273	11.199	140.521	77.3795	-12.4801	134.31	74.293	-48.2617	158.782	50.7116	17.5449	144.051	28.9214	0.812583	127.672	4.63825	12.2455	171.408	36.1782	26.5888	152.851	20.4414	17.0482	136.17	4.99974	38.615	174.031	68.3929	68.0525	175.236	60.499	102.335	142.551	80.805	85.6389	
64	0.533333	112.33	60.0666	89.4175	99.9327	53.2785	51.6577	99.509	45.278	24.938	115.637	38.9605	2.13133	134.492	101.27	26.7921	133.863	107.652	-4.17614	138.212	109.029	-27.4898	152.382	96.3309	16.8997	152.387	97.0198	-9.97961	145.8	99.9889	-40.6525	167.045	69.0111	19.3152	157.186	43.8924	-2.50316	142.349	21.7295	5.65345	179.755	55.0915	27.9387	165.819	34.8933	13.9094	151.054	15.6675	30.4955	176.677	78.3283	73.2129	175.724	67.9814	105.758	143.685	84.467	91.173	
65	0.541667	116.32	59.5861	81.412	113.349	50.7605	47.7975	115.928	45.5109	18.2819	132.548	39.381	-0.159633	144.61	103.812	25.8422	151.12	109.822	-2.7142	153.874	115.137	-23.637	167.788	102.809	16.211	166.196	104.649	-7.22993	163.275	107.797	-37.5082	177.634	76.7792	19.481	172.914	54.8665	-0.896763	158.617	26.3384	7.24928	192.36	62.6853	30.1752	182.928	39.2998	16.3974	166.55	23.8333	29.1772	179.869	83.5799	79.7174	174.086	71.5794	109.116	147.6	89.1632	88.8604	
66	0.55	121.347	55.7175	76.441	121.508	43.393	45.0148	129.157	37.4035	12.7045	147.947	31.5194	-0.964562	156.073	97.714	18.7194	157.652	104.036	-4.23986	166.315	109.603	-30.8143	175.139	97.0076	18.0394	178.024	99.2062	-9.44068	182.147	100.557	-42.4358	191.552	72.4117	19.0302	189.036	46.1035	1.72817	175.466	21.6011	11.364	204.198	60.8244	34.7586	198.925	40.0978	20.2731	181.199	17.0863	34.9013	186.848	85.0744	77.5149	178.479	73.3183	107.156	149.011	84.8412	87.2577	
67	0.558333	125.356	50.0365	74.0721	128.826	34.0479	43.6589	140.628	24.882	15.9534	153.552	15.0072	-0.0357525	164.237	84.9319	13.7309	167.844	87.2822	-12.2561	179.092	89.5378	-34.6617	181.58	84.3504	9.34734	188.999	82.684	-12.6345	194.936	80.7143	-42.3345	200.52	63.1041	24.7265	200.58	36.9802	6.3221	187.986	9.55472	19.4796	214.248	51.5399	39.4848	204.97	26.4426	24.9611	191.302	8.00315	39.9705	187.82	80.5986	77.8097	181.672	74.4023	109.241	150.745	82.7755	79.3198	
68	0.566667	130.393	42.447	74.0379	133.578	23.2704	49.1639	137.537	6.03347	20.0275	151.406	-4.71523	4.07707	170.002	65.8742	11.5983	177.945	63.9967	-12.6864	183.744	62.0074	-37.589	192.849	66.6613	6.78569	197.912	59.7405	-14.5419	205.037	52.9771	-44.2992	208.362	46.5259	24.7539	206.651	18.6209	12.4951	191.353	-7.65118	30.5674	218.028	38.9365	41.3926	213.899	16.2685	32.8504	193.45	-3.78211	48.8631	189.633	74.6044	73.8511	183.993	73.5434	102.199	158.87	75.8595	75.3273	
69	0.575	137.226	36.4969	72.8375	135.491	13.7362	53.1003	137.92	-6.46618	25.9262	144.158	-21.0723	14.2381	172.065	47.2934	5.02279	179.414	40.879	-15.8829	187.629	35.5686	-37.2454	193.571	48.3303	7.41744	199.093	37.8322	-15.5541	212.197	24.7183	-41.7016	209.704	31.3088	28.0488	208.648	1.62921	19.8451	197.291	-20.9294	44.6307	218.621	25.1623	42.9652	219.637	-0.363425	42.7181	200.227	-14.9638	58.8683	195.946	66.2458	68.9993	181.036	70.5518	100.012	156.312	67.1174	73.8043	
70	0.583333	135.985	31.9664	77.3736	134.443	5.8591	56.5166	128.909	-15.982	34.465	132.525	-32.3162	20.7319	175.261	32.4141	6.12301	178.445	23.4188	-15.3508	186.269	13.2841	-39.6096	195.917	33.2132	9.5606	195.843	20.1881	-12.8128	207.585	2.91351	-36.6412	206.021	16.7572	29.6436	206.365	-13.9131	25.7112	190.616	-32.1951	49.7549	218.076	13.1152	45.0093	213.525	-14.6408	48.1618	196.079	-24.721	62.7894	197.234	56.0627	66.1929	186.202	64.8294	93.7201	160.518	63.03	69.0393	
71	0.591667	133.473	30.4753	78.4863	123.962	5.06973	62.4443	123.192	-18.3319	41.3414	117.504	-37.0926	27.1454	167.051	23.4563	9.06476	174.251	9.83444	-13.2185	175.56	0.18823	-33.0335	186.01	18.9729	6.68555	187.97	5.4401	-11.9144	192.341	-17.37	-38.5458	200.35	3.11361	30.07	200.143	-25.8188	32.3571	180.253	-41.008	58.6701	213.218	2.49002	49.7434	205.516	-22.972	48.5539	188.883	-32.3081	68.1415	196.414	50.6295	66.9107	185.929	61.2229	96.5462	159.081	56.718	72.533	
72	0.6	130.24	35.4597	84.458	117.543	8.49138	64.5528	108.58	-12.556	46.5522	100.453	-30.1473	34.6663	159.369	19.351	13.7565	160.992	3.18366	-12.3258	163.438	-10.0339	-31.6825	176.862	11.4578	8.92498	177.343	-5.67107	-12.0841	172.499	-25.9891	-33.5898	188.807	-3.54053	30.662	178.989	-35.2061	31.4004	167.077	-47.1753	60.0755	200.773	-6.49515	48.7266	187.327	-33.4774	51.6297	171.856	-40.6148	75.4342	194.049	42.2061	65.1677	191.536	53.4649	90.5302	158.485	54.1675	67.5271	
73	0.608333	128.151	40.8339	83.1572	105.831	21.3544	70.5312	93.4837	1.84558	53.2875	80.6895	-11.1448	41.4031	147.018	19.9924	12.7252	140.528	6.96175	-10.2666	141.237	-6.18113	-28.8727	162.736	9.51423	9.12706	157.849	-6.58672	-9.26058	148.5	-28.0051	-32.2804	172.338	-8.12604	30.1768	160.449	-40.0863	31.4028	143.796	-49.7883	57.8285	185.841	-16.1449	47.982	170.211	-40.2193	52.7242	150.78	-42.9792	76.4904	187.485	32.944	61.8812	190.143	47.5954	91.5301	158.994	54.8301	71.3028	
